<svg width="21" height="20" viewBox="0 0 21 20" fill="none" xmlns="http://www.w3.org/2000/svg">
<g clip-path="url(#clip0_1_7824)">
<path d="M6.59375 8.125C6.59375 8.35938 6.54818 8.58073 6.45703 8.78906C6.36589 8.9974 6.24219 9.17969 6.08594 9.33594C5.92969 9.49219 5.7474 9.61589 5.53906 9.70703C5.33073 9.79818 5.10938 9.84375 4.875 9.84375C4.64062 9.84375 4.41927 9.79818 4.21094 9.70703C4.0026 9.61589 3.82031 9.49219 3.66406 9.33594C3.50781 9.17969 3.38411 8.9974 3.29297 8.78906C3.20182 8.58073 3.15625 8.35938 3.15625 8.125C3.15625 7.89062 3.20182 7.66927 3.29297 7.46094C3.38411 7.2526 3.50781 7.07031 3.66406 6.91406C3.82031 6.75781 4.0026 6.63411 4.21094 6.54297C4.41927 6.45182 4.64062 6.40625 4.875 6.40625C5.10938 6.40625 5.33073 6.45182 5.53906 6.54297C5.7474 6.63411 5.92969 6.75781 6.08594 6.91406C6.24219 7.07031 6.36589 7.2526 6.45703 7.46094C6.54818 7.66927 6.59375 7.89062 6.59375 8.125ZM4.875 8.90625C5.08984 8.90625 5.27214 8.83138 5.42188 8.68164C5.57161 8.5319 5.64974 8.34635 5.65625 8.125C5.65625 7.91016 5.58138 7.72786 5.43164 7.57812C5.2819 7.42839 5.09635 7.35026 4.875 7.34375C4.66016 7.34375 4.47786 7.41862 4.32812 7.56836C4.17839 7.7181 4.10026 7.90365 4.09375 8.125C4.09375 8.33984 4.16862 8.52214 4.31836 8.67188C4.4681 8.82161 4.65365 8.89974 4.875 8.90625ZM9.875 10.1562C10.1094 10.1562 10.3307 10.2018 10.5391 10.293C10.7474 10.3841 10.9297 10.5078 11.0859 10.6641C11.2422 10.8203 11.3659 11.0026 11.457 11.2109C11.5482 11.4193 11.5938 11.6406 11.5938 11.875C11.5938 12.1094 11.5482 12.3307 11.457 12.5391C11.3659 12.7474 11.2422 12.9297 11.0859 13.0859C10.9297 13.2422 10.7474 13.3659 10.5391 13.457C10.3307 13.5482 10.1094 13.5938 9.875 13.5938C9.64062 13.5938 9.41927 13.5482 9.21094 13.457C9.0026 13.3659 8.82031 13.2422 8.66406 13.0859C8.50781 12.9297 8.38411 12.7474 8.29297 12.5391C8.20182 12.3307 8.15625 12.1094 8.15625 11.875C8.15625 11.6406 8.20182 11.4193 8.29297 11.2109C8.38411 11.0026 8.50781 10.8203 8.66406 10.6641C8.82031 10.5078 9.0026 10.3841 9.21094 10.293C9.41927 10.2018 9.64062 10.1562 9.875 10.1562ZM9.875 12.6562C10.0898 12.6562 10.2721 12.5814 10.4219 12.4316C10.5716 12.2819 10.6497 12.0964 10.6562 11.875C10.6562 11.6602 10.5814 11.4779 10.4316 11.3281C10.2819 11.1784 10.0964 11.1003 9.875 11.0938C9.66016 11.0938 9.47786 11.1686 9.32812 11.3184C9.17839 11.4681 9.10026 11.6536 9.09375 11.875C9.09375 12.0898 9.16862 12.2721 9.31836 12.4219C9.4681 12.5716 9.65365 12.6497 9.875 12.6562ZM8.72266 6.25H9.77734L6.02734 13.75H4.97266L8.72266 6.25ZM14.25 3.75L20.5 10L14.25 16.25H0.5V3.75H14.25ZM13.7324 15L18.7324 10L13.7324 5H1.75V15H13.7324ZM15.5 9.375C15.6693 9.375 15.8158 9.43685 15.9395 9.56055C16.0632 9.68424 16.125 9.83073 16.125 10C16.125 10.1693 16.0632 10.3158 15.9395 10.4395C15.8158 10.5632 15.6693 10.625 15.5 10.625C15.3307 10.625 15.1842 10.5632 15.0605 10.4395C14.9368 10.3158 14.875 10.1693 14.875 10C14.875 9.83073 14.9368 9.68424 15.0605 9.56055C15.1842 9.43685 15.3307 9.375 15.5 9.375Z" fill="#090919"/>
</g>
<defs>
<clipPath id="clip0_1_7824">
<rect width="20" height="20" fill="white" transform="translate(0.5)"/>
</clipPath>
</defs>
</svg>
