<svg width="34" height="34" viewBox="0 0 34 34" fill="none" xmlns="http://www.w3.org/2000/svg">
<rect width="34" height="34" rx="17" fill="#ECECFF"/>
<path d="M11.75 12.8333H16.125C16.3571 12.8333 16.5796 12.9211 16.7437 13.0774C16.9078 13.2337 17 13.4456 17 13.6666C17 13.8877 16.9078 14.0996 16.7437 14.2559C16.5796 14.4122 16.3571 14.5 16.125 14.5H11.75C11.5179 14.5 11.2954 14.4122 11.1313 14.2559C10.9672 14.0996 10.875 13.8877 10.875 13.6666C10.875 13.4456 10.9672 13.2337 11.1313 13.0774C11.2954 12.9211 11.5179 12.8333 11.75 12.8333ZM17.875 19.5H22.25C22.4821 19.5 22.7046 19.5878 22.8687 19.7441C23.0328 19.9003 23.125 20.1123 23.125 20.3333C23.125 20.5543 23.0328 20.7663 22.8687 20.9226C22.7046 21.0788 22.4821 21.1666 22.25 21.1666H17.875C17.6429 21.1666 17.4204 21.0788 17.2563 20.9226C17.0922 20.7663 17 20.5543 17 20.3333C17 20.1123 17.0922 19.9003 17.2563 19.7441C17.4204 19.5878 17.6429 19.5 17.875 19.5ZM11.75 16.1666H22.25C22.4821 16.1666 22.7046 16.2544 22.8687 16.4107C23.0328 16.567 23.125 16.779 23.125 17C23.125 17.221 23.0328 17.433 22.8687 17.5892C22.7046 17.7455 22.4821 17.8333 22.25 17.8333H11.75C11.5179 17.8333 11.2954 17.7455 11.1313 17.5892C10.9672 17.433 10.875 17.221 10.875 17C10.875 16.779 10.9672 16.567 11.1313 16.4107C11.2954 16.2544 11.5179 16.1666 11.75 16.1666Z" fill="#090919"/>
</svg>
