<svg width="20" height="20" viewBox="0 0 20 20" fill="none" xmlns="http://www.w3.org/2000/svg">
<path d="M17.1836 0.900391C17.7123 0.900501 18.1666 1.08731 18.54 1.45996C18.9129 1.83286 19.0996 2.28804 19.0996 2.81836V17.1836C19.0995 17.7123 18.9127 18.1666 18.54 18.54C18.1673 18.9128 17.713 19.0995 17.1836 19.0996H2.81836C2.28804 19.0996 1.83286 18.9129 1.45996 18.54C1.08721 18.1673 0.900501 17.713 0.900391 17.1836V2.81641C0.900501 2.2877 1.08731 1.8334 1.45996 1.45996C1.83286 1.08707 2.28804 0.900391 2.81836 0.900391H17.1836ZM10.6621 17.7754H17.1836C17.3615 17.7753 17.5004 17.7183 17.6094 17.6094C17.7183 17.5004 17.7753 17.3615 17.7754 17.1836V10.6621H10.6621V17.7754ZM2.22461 17.1836C2.22471 17.3615 2.28168 17.5004 2.39062 17.6094C2.49959 17.7183 2.63937 17.7754 2.81836 17.7754H9.33789V10.6621H2.22461V17.1836ZM10.6621 9.33789H17.7754V2.81836C17.7754 2.63937 17.7183 2.49959 17.6094 2.39062C17.5004 2.28168 17.3615 2.22471 17.1836 2.22461H10.6621V9.33789ZM2.81836 2.22461C2.63937 2.22461 2.49959 2.28166 2.39062 2.39062C2.28166 2.49959 2.22461 2.63937 2.22461 2.81836V9.33789H9.33789V2.22461H2.81836Z" fill="#090919" stroke="#090919" stroke-width="0.2"/>
</svg>
